# xmcd
#
# Track frame offsets:
#	150
#	15955
#	28833
#	36908
#	47840
#	62868
#	93378
#	105645
#	118653
#	136568
#	147655
#	158303
#	173348
#	189253
#	205763
#
# Disc length: 2997 seconds
# Revision: 5
# Processed by: cddbd v1.5.2PL0 Copyright (c) Steve Scherf et al.
# Submitted via: dBpowerAMP V12.0
#
DISCID=bb0bb30f
DTITLE=Various Artist - Cookin' with the Blues, Disc 2
DYEAR=1992
DGENRE=Blues
TTITLE0=John Lee Hooker - Black Man Blues
TTITLE1=Screamin' Jay Hawkins - This Is All
TTITLE2=Big Joe Williams - Watergate Blues
TTITLE3=Junior Wells - You Sure Look Good To Me
TTITLE4=Peter Green - Post Modern Blues
TTITLE5=Luther Allison - You Upset Me
TTITLE6=Aces, The - Take A Little Walk With Me
TTITLE7=Earl Hooker - Hold On
TTITLE8=Matt "Guitar" Murphy - Taking Off
TTITLE9=Little Walter - Blue Midnight
TTITLE10=Paul Lamb and The Blues Burglars - Spaced Out
TTITLE11=Isaac Scott - Help
TTITLE12=Buddy Reed and Th'Rip It Ups - Rialto Rock
TTITLE13=Brewers Droop with Mark Knopfler - My Old Lady
TTITLE14=Sunnyland Slim - Soft And Mellow Stella
EXTD=
EXTT0=
EXTT1=
EXTT2=
EXTT3=
EXTT4=
EXTT5=
EXTT6=
EXTT7=
EXTT8=
EXTT9=
EXTT10=
EXTT11=
EXTT12=
EXTT13=
EXTT14=
PLAYORDER=
